solid Untitled-593c5265
facet normal -0.9569403357322089 0.29028467725446244 0.0
  outer loop
    vertex 1.471177920604845 -0.29263548302419334 0.0
    vertex 1.38581929876693 -0.5740251485476356 -50.0
    vertex 1.38581929876693 -0.5740251485476356 0.0
  endloop
endfacet
facet normal -0.9569403357322089 0.29028467725446244 0.0
  outer loop
    vertex 1.38581929876693 -0.5740251485476356 -50.0
    vertex 1.471177920604845 -0.29263548302419334 0.0
    vertex 1.471177920604845 -0.29263548302419334 -50.0
  endloop
endfacet
facet normal -0.9951847266721968 0.09801714032956102 0.0
  outer loop
    vertex 1.5 0.0 0.0
    vertex 1.471177920604845 -0.29263548302419334 -50.0
    vertex 1.471177920604845 -0.29263548302419334 0.0
  endloop
endfacet
facet normal -0.9951847266721968 0.09801714032956102 0.0
  outer loop
    vertex 1.471177920604845 -0.29263548302419334 -50.0
    vertex 1.5 0.0 0.0
    vertex 1.5 0.0 -50.0
  endloop
endfacet
facet normal -0.9951847266721969 -0.09801714032956066 -0.0
  outer loop
    vertex 1.4711779206048456 0.2926354830241927 0.0
    vertex 1.5 0.0 -50.0
    vertex 1.5 0.0 0.0
  endloop
endfacet
facet normal -0.9951847266721969 -0.09801714032956066 -0.0
  outer loop
    vertex 1.5 0.0 -50.0
    vertex 1.4711779206048456 0.2926354830241927 0.0
    vertex 1.4711779206048456 0.2926354830241927 -50.0
  endloop
endfacet
facet normal 0.0 0.0 1.0
  outer loop
    vertex -3.970835496392215 -0.4821467210212916 0.0
    vertex -3.970835496392215 0.4821467210212937 0.0
    vertex -3.999999999999999 7.049916206369744e-16 0.0
  endloop
endfacet
facet normal 0.0 0.0 1.0
  outer loop
    vertex -3.970835496392215 0.4821467210212937 0.0
    vertex -3.970835496392215 -0.4821467210212916 0.0
    vertex -3.883767269704207 -0.9572626571502298 0.0
  endloop
endfacet
facet normal 0.0 0.0 1.0
  outer loop
    vertex -3.970835496392215 0.4821467210212937 0.0
    vertex -3.883767269704207 -0.9572626571502298 0.0
    vertex -3.8837672697042067 0.9572626571502323 0.0
  endloop
endfacet
facet normal 0.0 0.0 1.0
  outer loop
    vertex -3.8837672697042067 0.9572626571502323 0.0
    vertex -3.883767269704207 -0.9572626571502298 0.0
    vertex -3.7400649707416584 -1.418419548170141 0.0
  endloop
endfacet
facet normal 0.0 0.0 1.0
  outer loop
    vertex -3.8837672697042067 0.9572626571502323 0.0
    vertex -3.7400649707416584 -1.418419548170141 0.0
    vertex -3.740064970741658 1.4184195481701434 0.0
  endloop
endfacet
facet normal 0.0 0.0 1.0
  outer loop
    vertex -3.740064970741658 1.4184195481701434 0.0
    vertex -3.7400649707416584 -1.418419548170141 0.0
    vertex -3.5418241026128388 -1.8588926881750736 0.0
  endloop
endfacet
facet normal 0.0 0.0 1.0
  outer loop
    vertex -3.740064970741658 1.4184195481701434 0.0
    vertex -3.5418241026128388 -1.8588926881750736 0.0
    vertex -3.5418241026128388 1.8588926881750747 0.0
  endloop
endfacet
facet normal 0.0 0.0 1.0
  outer loop
    vertex -3.5418241026128388 1.8588926881750747 0.0
    vertex -3.5418241026128388 -1.8588926881750736 0.0
    vertex -3.291935463574625 -2.2722589869246224 0.0
  endloop
endfacet
facet normal 0.0 0.0 1.0
  outer loop
    vertex -3.5418241026128388 1.8588926881750747 0.0
    vertex -3.291935463574625 -2.2722589869246224 0.0
    vertex -3.2919354635746245 2.2722589869246232 0.0
  endloop
endfacet
facet normal 0.0 0.0 1.0
  outer loop
    vertex -3.2919354635746245 2.2722589869246232 0.0
    vertex -3.291935463574625 -2.2722589869246224 0.0
    vertex -2.9940429926844048 -2.6524906329631794 0.0
  endloop
endfacet
facet normal 0.0 0.0 1.0
  outer loop
    vertex -3.2919354635746245 2.2722589869246232 0.0
    vertex -2.9940429926844048 -2.6524906329631794 0.0
    vertex -2.994042992684403 2.652490632963181 0.0
  endloop
endfacet
facet normal 0.0 0.0 1.0
  outer loop
    vertex -2.994042992684403 2.652490632963181 0.0
    vertex -2.9940429926844048 -2.6524906329631794 0.0
    vertex -2.6524906329631817 -2.9940429926844034 0.0
  endloop
endfacet
facet normal 0.0 0.0 1.0
  outer loop
    vertex -2.994042992684403 2.652490632963181 0.0
    vertex -2.6524906329631817 -2.9940429926844034 0.0
    vertex -2.6524906329631794 2.9940429926844048 0.0
  endloop
endfacet
facet normal 0.0 0.0 1.0
  outer loop
    vertex -2.6524906329631794 2.9940429926844048 0.0
    vertex -2.6524906329631817 -2.9940429926844034 0.0
    vertex -2.2722589869246232 -3.291935463574625 0.0
  endloop
endfacet
facet normal 0.0 0.0 1.0
  outer loop
    vertex -2.6524906329631794 2.9940429926844048 0.0
    vertex -2.2722589869246232 -3.291935463574625 0.0
    vertex -2.272258986924622 3.291935463574626 0.0
  endloop
endfacet
facet normal 0.0 0.0 1.0
  outer loop
    vertex -2.272258986924622 3.291935463574626 0.0
    vertex -2.2722589869246232 -3.291935463574625 0.0
    vertex -1.858892688175076 -3.541824102612838 0.0
  endloop
endfacet
facet normal 0.0 0.0 1.0
  outer loop
    vertex -2.272258986924622 3.291935463574626 0.0
    vertex -1.858892688175076 -3.541824102612838 0.0
    vertex -1.8588926881750736 3.5418241026128388 0.0
  endloop
endfacet
facet normal 0.0 0.0 1.0
  outer loop
    vertex -1.8588926881750736 3.5418241026128388 0.0
    vertex -1.858892688175076 -3.541824102612838 0.0
    vertex -1.4184195481701434 -3.7400649707416584 0.0
  endloop
endfacet
facet normal 0.0 0.0 1.0
  outer loop
    vertex -1.8588926881750736 3.5418241026128388 0.0
    vertex -1.4184195481701434 -3.7400649707416584 0.0
    vertex -1.5 0.0 0.0
  endloop
endfacet
facet normal 0.0 0.0 1.0
  outer loop
    vertex -1.5 0.0 0.0
    vertex -1.4184195481701434 -3.7400649707416584 0.0
    vertex -1.4711779206048456 -0.2926354830241927 0.0
  endloop
endfacet
facet normal 0.0 0.0 1.0
  outer loop
    vertex -1.4711779206048456 -0.2926354830241927 0.0
    vertex -1.4184195481701434 -3.7400649707416584 0.0
    vertex -1.38581929876693 -0.5740251485476349 0.0
  endloop
endfacet
facet normal 0.0 0.0 1.0
  outer loop
    vertex -1.38581929876693 -0.5740251485476349 0.0
    vertex -1.4184195481701434 -3.7400649707416584 0.0
    vertex -0.957262657150231 -3.883767269704208 0.0
  endloop
endfacet
facet normal 0.0 0.0 1.0
  outer loop
    vertex -1.38581929876693 -0.5740251485476349 0.0
    vertex -0.957262657150231 -3.883767269704208 0.0
    vertex -1.247204418453818 -0.833355349529403 0.0
  endloop
endfacet
facet normal 0.0 0.0 1.0
  outer loop
    vertex -1.247204418453818 -0.833355349529403 0.0
    vertex -0.957262657150231 -3.883767269704208 0.0
    vertex -1.0606601717798214 -1.0606601717798212 0.0
  endloop
endfacet
facet normal 0.0 0.0 1.0
  outer loop
    vertex -1.0606601717798214 -1.0606601717798212 0.0
    vertex -0.957262657150231 -3.883767269704208 0.0
    vertex -0.8333553495294034 -1.247204418453818 0.0
  endloop
endfacet
facet normal 0.0 0.0 1.0
  outer loop
    vertex -0.8333553495294034 -1.247204418453818 0.0
    vertex -0.957262657150231 -3.883767269704208 0.0
    vertex -0.4821467210212944 -3.970835496392216 0.0
  endloop
endfacet
facet normal 0.0 0.0 1.0
  outer loop
    vertex -0.8333553495294034 -1.247204418453818 0.0
    vertex -0.4821467210212944 -3.970835496392216 0.0
    vertex -0.5740251485476356 -1.38581929876693 0.0
  endloop
endfacet
facet normal 0.0 0.0 1.0
  outer loop
    vertex -0.5740251485476356 -1.38581929876693 0.0
    vertex -0.4821467210212944 -3.970835496392216 0.0
    vertex -0.2926354830241927 -1.4711779206048456 0.0
  endloop
endfacet
facet normal 0.0 0.0 1.0
  outer loop
    vertex -0.2926354830241927 -1.4711779206048456 0.0
    vertex -0.4821467210212944 -3.970835496392216 0.0
    vertex -7.049916206369744e-16 -3.9999999999999996 0.0
  endloop
endfacet
facet normal 0.0 0.0 1.0
  outer loop
    vertex -0.2926354830241927 -1.4711779206048456 0.0
    vertex -7.049916206369744e-16 -3.9999999999999996 0.0
    vertex 0.0 -1.5 0.0
  endloop
endfacet
facet normal 0.0 0.0 1.0
  outer loop
    vertex 0.0 -1.5 0.0
    vertex -7.049916206369744e-16 -3.9999999999999996 0.0
    vertex 0.48214672102128947 -3.970835496392216 0.0
  endloop
endfacet
facet normal 0.0 0.0 1.0
  outer loop
    vertex 0.0 -1.5 0.0
    vertex 0.48214672102128947 -3.970835496392216 0.0
    vertex 0.2926354830241927 -1.4711779206048456 0.0
  endloop
endfacet
facet normal 0.0 0.0 1.0
  outer loop
    vertex 0.2926354830241927 -1.4711779206048456 0.0
    vertex 0.48214672102128947 -3.970835496392216 0.0
    vertex 0.5740251485476349 -1.38581929876693 0.0
  endloop
endfacet
facet normal 0.0 0.0 1.0
  outer loop
    vertex 0.5740251485476349 -1.38581929876693 0.0
    vertex 0.48214672102128947 -3.970835496392216 0.0
    vertex 0.9572626571502295 -3.883767269704208 0.0
  endloop
endfacet
facet normal 0.0 0.0 1.0
  outer loop
    vertex 0.5740251485476349 -1.38581929876693 0.0
    vertex 0.9572626571502295 -3.883767269704208 0.0
    vertex 0.8333553495294027 -1.2472044184538185 0.0
  endloop
endfacet
facet normal 0.0 0.0 1.0
  outer loop
    vertex 0.8333553495294027 -1.2472044184538185 0.0
    vertex 0.9572626571502295 -3.883767269704208 0.0
    vertex 1.0606601717798212 -1.0606601717798219 0.0
  endloop
endfacet
facet normal 0.0 0.0 1.0
  outer loop
    vertex 1.0606601717798212 -1.0606601717798219 0.0
    vertex 0.9572626571502295 -3.883767269704208 0.0
    vertex 1.4184195481701418 -3.7400649707416593 0.0
  endloop
endfacet
facet normal 0.0 0.0 1.0
  outer loop
    vertex 1.0606601717798212 -1.0606601717798219 0.0
    vertex 1.4184195481701418 -3.7400649707416593 0.0
    vertex 1.2472044184538174 -0.8333553495294034 0.0
  endloop
endfacet
facet normal 0.0 0.0 1.0
  outer loop
    vertex 1.2472044184538174 -0.8333553495294034 0.0
    vertex 1.4184195481701418 -3.7400649707416593 0.0
    vertex 1.38581929876693 -0.5740251485476356 0.0
  endloop
endfacet
facet normal 0.0 0.0 1.0
  outer loop
    vertex 1.38581929876693 -0.5740251485476356 0.0
    vertex 1.4184195481701418 -3.7400649707416593 0.0
    vertex 1.471177920604845 -0.29263548302419334 0.0
  endloop
endfacet
facet normal 0.0 0.0 1.0
  outer loop
    vertex 1.471177920604845 -0.29263548302419334 0.0
    vertex 1.4184195481701418 -3.7400649707416593 0.0
    vertex 1.8588926881750718 -3.54182410261284 0.0
  endloop
endfacet
facet normal 0.0 0.0 1.0
  outer loop
    vertex 1.471177920604845 -0.29263548302419334 0.0
    vertex 1.8588926881750718 -3.54182410261284 0.0
    vertex 1.5 0.0 0.0
  endloop
endfacet
facet normal 0.0 0.0 1.0
  outer loop
    vertex -1.5 0.0 0.0
    vertex -1.4184195481701416 3.7400649707416598 0.0
    vertex -1.8588926881750736 3.5418241026128388 0.0
  endloop
endfacet
facet normal 0.0 0.0 1.0
  outer loop
    vertex -1.4184195481701416 3.7400649707416598 0.0
    vertex -1.5 0.0 0.0
    vertex -1.4711779206048456 0.2926354830241927 0.0
  endloop
endfacet
facet normal 0.0 0.0 1.0
  outer loop
    vertex -1.4184195481701416 3.7400649707416598 0.0
    vertex -1.4711779206048456 0.2926354830241927 0.0
    vertex -1.38581929876693 0.5740251485476349 0.0
  endloop
endfacet
facet normal 0.0 0.0 1.0
  outer loop
    vertex -1.4184195481701416 3.7400649707416598 0.0
    vertex -1.38581929876693 0.5740251485476349 0.0
    vertex -0.9572626571502305 3.883767269704208 0.0
  endloop
endfacet
facet normal 0.0 0.0 1.0
  outer loop
    vertex -0.9572626571502305 3.883767269704208 0.0
    vertex -1.38581929876693 0.5740251485476349 0.0
    vertex -1.247204418453818 0.8333553495294034 0.0
  endloop
endfacet
facet normal 0.0 0.0 1.0
  outer loop
    vertex -0.9572626571502305 3.883767269704208 0.0
    vertex -1.247204418453818 0.8333553495294034 0.0
    vertex -1.0606601717798212 1.0606601717798212 0.0
  endloop
endfacet
facet normal 0.0 0.0 1.0
  outer loop
    vertex -0.9572626571502305 3.883767269704208 0.0
    vertex -1.0606601717798212 1.0606601717798212 0.0
    vertex -0.8333553495294027 1.247204418453818 0.0
  endloop
endfacet
facet normal 0.0 0.0 1.0
  outer loop
    vertex -0.9572626571502305 3.883767269704208 0.0
    vertex -0.8333553495294027 1.247204418453818 0.0
    vertex -0.4821467210212916 3.970835496392216 0.0
  endloop
endfacet
facet normal 0.0 0.0 1.0
  outer loop
    vertex -0.4821467210212916 3.970835496392216 0.0
    vertex -0.8333553495294027 1.247204418453818 0.0
    vertex -0.5740251485476342 1.38581929876693 0.0
  endloop
endfacet
facet normal 0.0 0.0 1.0
  outer loop
    vertex -0.4821467210212916 3.970835496392216 0.0
    vertex -0.5740251485476342 1.38581929876693 0.0
    vertex -0.29263548302419196 1.4711779206048456 0.0
  endloop
endfacet
facet normal 0.0 0.0 1.0
  outer loop
    vertex -0.4821467210212916 3.970835496392216 0.0
    vertex -0.29263548302419196 1.4711779206048456 0.0
    vertex 0.0 3.9999999999999996 0.0
  endloop
endfacet
facet normal 0.0 0.0 1.0
  outer loop
    vertex 0.0 3.9999999999999996 0.0
    vertex -0.29263548302419196 1.4711779206048456 0.0
    vertex 0.0 1.5 0.0
  endloop
endfacet
facet normal 0.0 0.0 1.0
  outer loop
    vertex 0.0 3.9999999999999996 0.0
    vertex 0.0 1.5 0.0
    vertex 0.2926354830241927 1.4711779206048456 0.0
  endloop
endfacet
facet normal 0.0 0.0 1.0
  outer loop
    vertex 0.0 3.9999999999999996 0.0
    vertex 0.2926354830241927 1.4711779206048456 0.0
    vertex 0.482146721021293 3.970835496392216 0.0
  endloop
endfacet
facet normal 0.0 0.0 1.0
  outer loop
    vertex 0.482146721021293 3.970835496392216 0.0
    vertex 0.2926354830241927 1.4711779206048456 0.0
    vertex 0.5740251485476349 1.38581929876693 0.0
  endloop
endfacet
facet normal 0.0 0.0 1.0
  outer loop
    vertex 0.482146721021293 3.970835496392216 0.0
    vertex 0.5740251485476349 1.38581929876693 0.0
    vertex 0.957262657150231 3.883767269704208 0.0
  endloop
endfacet
facet normal 0.0 0.0 1.0
  outer loop
    vertex 0.957262657150231 3.883767269704208 0.0
    vertex 0.5740251485476349 1.38581929876693 0.0
    vertex 0.8333553495294034 1.247204418453818 0.0
  endloop
endfacet
facet normal 0.0 0.0 1.0
  outer loop
    vertex 0.957262657150231 3.883767269704208 0.0
    vertex 0.8333553495294034 1.247204418453818 0.0
    vertex 1.0606601717798212 1.0606601717798212 0.0
  endloop
endfacet
facet normal 0.0 0.0 1.0
  outer loop
    vertex 0.957262657150231 3.883767269704208 0.0
    vertex 1.0606601717798212 1.0606601717798212 0.0
    vertex 1.4184195481701434 3.7400649707416584 0.0
  endloop
endfacet
facet normal 0.0 0.0 1.0
  outer loop
    vertex 1.4184195481701434 3.7400649707416584 0.0
    vertex 1.0606601717798212 1.0606601717798212 0.0
    vertex 1.2472044184538174 0.8333553495294034 0.0
  endloop
endfacet
facet normal 0.0 0.0 1.0
  outer loop
    vertex 1.4184195481701434 3.7400649707416584 0.0
    vertex 1.2472044184538174 0.8333553495294034 0.0
    vertex 1.38581929876693 0.5740251485476349 0.0
  endloop
endfacet
facet normal 0.0 0.0 1.0
  outer loop
    vertex 1.4184195481701434 3.7400649707416584 0.0
    vertex 1.38581929876693 0.5740251485476349 0.0
    vertex 1.4711779206048456 0.2926354830241927 0.0
  endloop
endfacet
facet normal 0.0 0.0 1.0
  outer loop
    vertex 1.4184195481701434 3.7400649707416584 0.0
    vertex 1.4711779206048456 0.2926354830241927 0.0
    vertex 1.8588926881750738 3.5418241026128388 0.0
  endloop
endfacet
facet normal 0.0 0.0 1.0
  outer loop
    vertex 1.8588926881750738 3.5418241026128388 0.0
    vertex 1.4711779206048456 0.2926354830241927 0.0
    vertex 1.5 0.0 0.0
  endloop
endfacet
facet normal 0.0 0.0 1.0
  outer loop
    vertex 1.8588926881750738 3.5418241026128388 0.0
    vertex 1.5 0.0 0.0
    vertex 1.8588926881750718 -3.54182410261284 0.0
  endloop
endfacet
facet normal 0.0 0.0 1.0
  outer loop
    vertex 1.8588926881750738 3.5418241026128388 0.0
    vertex 1.8588926881750718 -3.54182410261284 0.0
    vertex 2.272258986924622 -3.291935463574626 0.0
  endloop
endfacet
facet normal 0.0 0.0 1.0
  outer loop
    vertex 1.8588926881750738 3.5418241026128388 0.0
    vertex 2.272258986924622 -3.291935463574626 0.0
    vertex 2.2722589869246232 3.2919354635746245 0.0
  endloop
endfacet
facet normal 0.0 0.0 1.0
  outer loop
    vertex 2.2722589869246232 3.2919354635746245 0.0
    vertex 2.272258986924622 -3.291935463574626 0.0
    vertex 2.6524906329631777 -2.9940429926844065 0.0
  endloop
endfacet
facet normal 0.0 0.0 1.0
  outer loop
    vertex 2.2722589869246232 3.2919354635746245 0.0
    vertex 2.6524906329631777 -2.9940429926844065 0.0
    vertex 2.6524906329631803 2.9940429926844034 0.0
  endloop
endfacet
facet normal 0.0 0.0 1.0
  outer loop
    vertex 2.6524906329631803 2.9940429926844034 0.0
    vertex 2.6524906329631777 -2.9940429926844065 0.0
    vertex 2.994042992684403 -2.652490632963182 0.0
  endloop
endfacet
facet normal 0.0 0.0 1.0
  outer loop
    vertex 2.6524906329631803 2.9940429926844034 0.0
    vertex 2.994042992684403 -2.652490632963182 0.0
    vertex 2.9940429926844043 2.652490632963181 0.0
  endloop
endfacet
facet normal 0.0 0.0 1.0
  outer loop
    vertex 2.9940429926844043 2.652490632963181 0.0
    vertex 2.994042992684403 -2.652490632963182 0.0
    vertex 3.291935463574625 -2.2722589869246237 0.0
  endloop
endfacet
facet normal 0.0 0.0 1.0
  outer loop
    vertex 2.9940429926844043 2.652490632963181 0.0
    vertex 3.291935463574625 -2.2722589869246237 0.0
    vertex 3.291935463574625 2.272258986924623 0.0
  endloop
endfacet
facet normal 0.0 0.0 1.0
  outer loop
    vertex 3.291935463574625 2.272258986924623 0.0
    vertex 3.291935463574625 -2.2722589869246237 0.0
    vertex 3.5418241026128365 -1.8588926881750767 0.0
  endloop
endfacet
facet normal 0.0 0.0 1.0
  outer loop
    vertex 3.291935463574625 2.272258986924623 0.0
    vertex 3.5418241026128365 -1.8588926881750767 0.0
    vertex 3.541824102612839 1.8588926881750738 0.0
  endloop
endfacet
facet normal 0.0 0.0 1.0
  outer loop
    vertex 3.541824102612839 1.8588926881750738 0.0
    vertex 3.5418241026128365 -1.8588926881750767 0.0
    vertex 3.740064970741658 -1.4184195481701436 0.0
  endloop
endfacet
facet normal 0.0 0.0 1.0
  outer loop
    vertex 3.541824102612839 1.8588926881750738 0.0
    vertex 3.740064970741658 -1.4184195481701436 0.0
    vertex 3.740064970741658 1.4184195481701425 0.0
  endloop
endfacet
facet normal 0.0 0.0 1.0
  outer loop
    vertex 3.740064970741658 1.4184195481701425 0.0
    vertex 3.740064970741658 -1.4184195481701436 0.0
    vertex 3.883767269704206 -0.9572626571502344 0.0
  endloop
endfacet
facet normal 0.0 0.0 1.0
  outer loop
    vertex 3.740064970741658 1.4184195481701425 0.0
    vertex 3.883767269704206 -0.9572626571502344 0.0
    vertex 3.883767269704207 0.957262657150231 0.0
  endloop
endfacet
facet normal 0.0 0.0 1.0
  outer loop
    vertex 3.883767269704207 0.957262657150231 0.0
    vertex 3.883767269704206 -0.9572626571502344 0.0
    vertex 3.970835496392215 -0.4821467210212944 0.0
  endloop
endfacet
facet normal 0.0 0.0 1.0
  outer loop
    vertex 3.883767269704207 0.957262657150231 0.0
    vertex 3.970835496392215 -0.4821467210212944 0.0
    vertex 3.970835496392215 0.4821467210212923 0.0
  endloop
endfacet
facet normal 0.0 0.0 1.0
  outer loop
    vertex 3.970835496392215 0.4821467210212923 0.0
    vertex 3.970835496392215 -0.4821467210212944 0.0
    vertex 3.999999999999999 0.0 0.0
  endloop
endfacet
facet normal 0.0 0.0 -1.0
  outer loop
    vertex -1.4184195481701416 3.7400649707416598 -50.0
    vertex -1.5 0.0 -50.0
    vertex -1.8588926881750736 3.5418241026128388 -50.0
  endloop
endfacet
facet normal 0.0 0.0 -1.0
  outer loop
    vertex -1.5 0.0 -50.0
    vertex -1.4184195481701416 3.7400649707416598 -50.0
    vertex -1.4711779206048456 0.2926354830241927 -50.0
  endloop
endfacet
facet normal 0.0 0.0 -1.0
  outer loop
    vertex -1.4711779206048456 0.2926354830241927 -50.0
    vertex -1.4184195481701416 3.7400649707416598 -50.0
    vertex -1.38581929876693 0.5740251485476349 -50.0
  endloop
endfacet
facet normal 0.0 0.0 -1.0
  outer loop
    vertex -1.38581929876693 0.5740251485476349 -50.0
    vertex -1.4184195481701416 3.7400649707416598 -50.0
    vertex -0.9572626571502305 3.883767269704208 -50.0
  endloop
endfacet
facet normal 0.0 0.0 -1.0
  outer loop
    vertex -1.38581929876693 0.5740251485476349 -50.0
    vertex -0.9572626571502305 3.883767269704208 -50.0
    vertex -1.247204418453818 0.8333553495294034 -50.0
  endloop
endfacet
facet normal 0.0 0.0 -1.0
  outer loop
    vertex -1.247204418453818 0.8333553495294034 -50.0
    vertex -0.9572626571502305 3.883767269704208 -50.0
    vertex -1.0606601717798212 1.0606601717798212 -50.0
  endloop
endfacet
facet normal 0.0 0.0 -1.0
  outer loop
    vertex -1.0606601717798212 1.0606601717798212 -50.0
    vertex -0.9572626571502305 3.883767269704208 -50.0
    vertex -0.8333553495294027 1.247204418453818 -50.0
  endloop
endfacet
facet normal 0.0 0.0 -1.0
  outer loop
    vertex -0.8333553495294027 1.247204418453818 -50.0
    vertex -0.9572626571502305 3.883767269704208 -50.0
    vertex -0.4821467210212916 3.970835496392216 -50.0
  endloop
endfacet
facet normal 0.0 0.0 -1.0
  outer loop
    vertex -0.8333553495294027 1.247204418453818 -50.0
    vertex -0.4821467210212916 3.970835496392216 -50.0
    vertex -0.5740251485476342 1.38581929876693 -50.0
  endloop
endfacet
facet normal 0.0 0.0 -1.0
  outer loop
    vertex -0.5740251485476342 1.38581929876693 -50.0
    vertex -0.4821467210212916 3.970835496392216 -50.0
    vertex -0.29263548302419196 1.4711779206048456 -50.0
  endloop
endfacet
facet normal 0.0 0.0 -1.0
  outer loop
    vertex -0.29263548302419196 1.4711779206048456 -50.0
    vertex -0.4821467210212916 3.970835496392216 -50.0
    vertex 0.0 3.9999999999999996 -50.0
  endloop
endfacet
facet normal 0.0 0.0 -1.0
  outer loop
    vertex -0.29263548302419196 1.4711779206048456 -50.0
    vertex 0.0 3.9999999999999996 -50.0
    vertex 0.0 1.5 -50.0
  endloop
endfacet
facet normal 0.0 0.0 -1.0
  outer loop
    vertex 0.0 1.5 -50.0
    vertex 0.0 3.9999999999999996 -50.0
    vertex 0.482146721021293 3.970835496392216 -50.0
  endloop
endfacet
facet normal 0.0 0.0 -1.0
  outer loop
    vertex 0.0 1.5 -50.0
    vertex 0.482146721021293 3.970835496392216 -50.0
    vertex 0.2926354830241927 1.4711779206048456 -50.0
  endloop
endfacet
facet normal 0.0 0.0 -1.0
  outer loop
    vertex 0.2926354830241927 1.4711779206048456 -50.0
    vertex 0.482146721021293 3.970835496392216 -50.0
    vertex 0.5740251485476349 1.38581929876693 -50.0
  endloop
endfacet
facet normal 0.0 0.0 -1.0
  outer loop
    vertex 0.5740251485476349 1.38581929876693 -50.0
    vertex 0.482146721021293 3.970835496392216 -50.0
    vertex 0.957262657150231 3.883767269704208 -50.0
  endloop
endfacet
facet normal 0.0 0.0 -1.0
  outer loop
    vertex 0.5740251485476349 1.38581929876693 -50.0
    vertex 0.957262657150231 3.883767269704208 -50.0
    vertex 0.8333553495294034 1.247204418453818 -50.0
  endloop
endfacet
facet normal 0.0 0.0 -1.0
  outer loop
    vertex 0.8333553495294034 1.247204418453818 -50.0
    vertex 0.957262657150231 3.883767269704208 -50.0
    vertex 1.0606601717798212 1.0606601717798212 -50.0
  endloop
endfacet
facet normal 0.0 0.0 -1.0
  outer loop
    vertex 1.0606601717798212 1.0606601717798212 -50.0
    vertex 0.957262657150231 3.883767269704208 -50.0
    vertex 1.4184195481701434 3.7400649707416584 -50.0
  endloop
endfacet
facet normal 0.0 0.0 -1.0
  outer loop
    vertex 1.0606601717798212 1.0606601717798212 -50.0
    vertex 1.4184195481701434 3.7400649707416584 -50.0
    vertex 1.2472044184538174 0.8333553495294034 -50.0
  endloop
endfacet
facet normal 0.0 0.0 -1.0
  outer loop
    vertex 1.2472044184538174 0.8333553495294034 -50.0
    vertex 1.4184195481701434 3.7400649707416584 -50.0
    vertex 1.38581929876693 0.5740251485476349 -50.0
  endloop
endfacet
facet normal 0.0 0.0 -1.0
  outer loop
    vertex 1.38581929876693 0.5740251485476349 -50.0
    vertex 1.4184195481701434 3.7400649707416584 -50.0
    vertex 1.4711779206048456 0.2926354830241927 -50.0
  endloop
endfacet
facet normal 0.0 0.0 -1.0
  outer loop
    vertex 1.4711779206048456 0.2926354830241927 -50.0
    vertex 1.4184195481701434 3.7400649707416584 -50.0
    vertex 1.8588926881750738 3.5418241026128388 -50.0
  endloop
endfacet
facet normal 0.0 0.0 -1.0
  outer loop
    vertex 1.4711779206048456 0.2926354830241927 -50.0
    vertex 1.8588926881750738 3.5418241026128388 -50.0
    vertex 1.5 0.0 -50.0
  endloop
endfacet
facet normal 0.0 0.0 -1.0
  outer loop
    vertex 1.5 0.0 -50.0
    vertex 1.8588926881750738 3.5418241026128388 -50.0
    vertex 1.8588926881750718 -3.54182410261284 -50.0
  endloop
endfacet
facet normal 0.0 0.0 -1.0
  outer loop
    vertex 1.8588926881750718 -3.54182410261284 -50.0
    vertex 1.8588926881750738 3.5418241026128388 -50.0
    vertex 2.272258986924622 -3.291935463574626 -50.0
  endloop
endfacet
facet normal 0.0 0.0 -1.0
  outer loop
    vertex 2.272258986924622 -3.291935463574626 -50.0
    vertex 1.8588926881750738 3.5418241026128388 -50.0
    vertex 2.2722589869246232 3.2919354635746245 -50.0
  endloop
endfacet
facet normal 0.0 0.0 -1.0
  outer loop
    vertex 2.272258986924622 -3.291935463574626 -50.0
    vertex 2.2722589869246232 3.2919354635746245 -50.0
    vertex 2.6524906329631777 -2.9940429926844065 -50.0
  endloop
endfacet
facet normal 0.0 0.0 -1.0
  outer loop
    vertex 2.6524906329631777 -2.9940429926844065 -50.0
    vertex 2.2722589869246232 3.2919354635746245 -50.0
    vertex 2.6524906329631803 2.9940429926844034 -50.0
  endloop
endfacet
facet normal 0.0 0.0 -1.0
  outer loop
    vertex 2.6524906329631777 -2.9940429926844065 -50.0
    vertex 2.6524906329631803 2.9940429926844034 -50.0
    vertex 2.994042992684403 -2.652490632963182 -50.0
  endloop
endfacet
facet normal 0.0 0.0 -1.0
  outer loop
    vertex 2.994042992684403 -2.652490632963182 -50.0
    vertex 2.6524906329631803 2.9940429926844034 -50.0
    vertex 2.9940429926844043 2.652490632963181 -50.0
  endloop
endfacet
facet normal 0.0 0.0 -1.0
  outer loop
    vertex 2.994042992684403 -2.652490632963182 -50.0
    vertex 2.9940429926844043 2.652490632963181 -50.0
    vertex 3.291935463574625 -2.2722589869246237 -50.0
  endloop
endfacet
facet normal 0.0 0.0 -1.0
  outer loop
    vertex 3.291935463574625 -2.2722589869246237 -50.0
    vertex 2.9940429926844043 2.652490632963181 -50.0
    vertex 3.291935463574625 2.272258986924623 -50.0
  endloop
endfacet
facet normal 0.0 0.0 -1.0
  outer loop
    vertex 3.291935463574625 -2.2722589869246237 -50.0
    vertex 3.291935463574625 2.272258986924623 -50.0
    vertex 3.541824102612839 1.8588926881750738 -50.0
  endloop
endfacet
facet normal 0.0 0.0 -1.0
  outer loop
    vertex 3.291935463574625 -2.2722589869246237 -50.0
    vertex 3.541824102612839 1.8588926881750738 -50.0
    vertex 3.5418241026128365 -1.8588926881750767 -50.0
  endloop
endfacet
facet normal 0.0 0.0 -1.0
  outer loop
    vertex 3.5418241026128365 -1.8588926881750767 -50.0
    vertex 3.541824102612839 1.8588926881750738 -50.0
    vertex 3.740064970741658 -1.4184195481701436 -50.0
  endloop
endfacet
facet normal 0.0 0.0 -1.0
  outer loop
    vertex 3.740064970741658 -1.4184195481701436 -50.0
    vertex 3.541824102612839 1.8588926881750738 -50.0
    vertex 3.740064970741658 1.4184195481701425 -50.0
  endloop
endfacet
facet normal 0.0 0.0 -1.0
  outer loop
    vertex 3.740064970741658 -1.4184195481701436 -50.0
    vertex 3.740064970741658 1.4184195481701425 -50.0
    vertex 3.883767269704207 0.957262657150231 -50.0
  endloop
endfacet
facet normal 0.0 0.0 -1.0
  outer loop
    vertex 3.740064970741658 -1.4184195481701436 -50.0
    vertex 3.883767269704207 0.957262657150231 -50.0
    vertex 3.883767269704206 -0.9572626571502344 -50.0
  endloop
endfacet
facet normal 0.0 0.0 -1.0
  outer loop
    vertex 3.883767269704206 -0.9572626571502344 -50.0
    vertex 3.883767269704207 0.957262657150231 -50.0
    vertex 3.970835496392215 -0.4821467210212944 -50.0
  endloop
endfacet
facet normal 0.0 0.0 -1.0
  outer loop
    vertex 3.970835496392215 -0.4821467210212944 -50.0
    vertex 3.883767269704207 0.957262657150231 -50.0
    vertex 3.970835496392215 0.4821467210212923 -50.0
  endloop
endfacet
facet normal 0.0 0.0 -1.0
  outer loop
    vertex 3.970835496392215 -0.4821467210212944 -50.0
    vertex 3.970835496392215 0.4821467210212923 -50.0
    vertex 3.999999999999999 0.0 -50.0
  endloop
endfacet
facet normal 0.0 0.0 -1.0
  outer loop
    vertex -3.970835496392215 0.4821467210212937 -50.0
    vertex -3.970835496392215 -0.4821467210212916 -50.0
    vertex -3.999999999999999 7.049916206369744e-16 -50.0
  endloop
endfacet
facet normal 0.0 0.0 -1.0
  outer loop
    vertex -3.970835496392215 -0.4821467210212916 -50.0
    vertex -3.970835496392215 0.4821467210212937 -50.0
    vertex -3.8837672697042067 0.9572626571502323 -50.0
  endloop
endfacet
facet normal 0.0 0.0 -1.0
  outer loop
    vertex -3.970835496392215 -0.4821467210212916 -50.0
    vertex -3.8837672697042067 0.9572626571502323 -50.0
    vertex -3.883767269704207 -0.9572626571502298 -50.0
  endloop
endfacet
facet normal 0.0 0.0 -1.0
  outer loop
    vertex -3.883767269704207 -0.9572626571502298 -50.0
    vertex -3.8837672697042067 0.9572626571502323 -50.0
    vertex -3.7400649707416584 -1.418419548170141 -50.0
  endloop
endfacet
facet normal 0.0 0.0 -1.0
  outer loop
    vertex -3.7400649707416584 -1.418419548170141 -50.0
    vertex -3.8837672697042067 0.9572626571502323 -50.0
    vertex -3.740064970741658 1.4184195481701434 -50.0
  endloop
endfacet
facet normal 0.0 0.0 -1.0
  outer loop
    vertex -3.7400649707416584 -1.418419548170141 -50.0
    vertex -3.740064970741658 1.4184195481701434 -50.0
    vertex -3.5418241026128388 -1.8588926881750736 -50.0
  endloop
endfacet
facet normal 0.0 0.0 -1.0
  outer loop
    vertex -3.5418241026128388 -1.8588926881750736 -50.0
    vertex -3.740064970741658 1.4184195481701434 -50.0
    vertex -3.5418241026128388 1.8588926881750747 -50.0
  endloop
endfacet
facet normal 0.0 0.0 -1.0
  outer loop
    vertex -3.5418241026128388 -1.8588926881750736 -50.0
    vertex -3.5418241026128388 1.8588926881750747 -50.0
    vertex -3.2919354635746245 2.2722589869246232 -50.0
  endloop
endfacet
facet normal 0.0 0.0 -1.0
  outer loop
    vertex -3.5418241026128388 -1.8588926881750736 -50.0
    vertex -3.2919354635746245 2.2722589869246232 -50.0
    vertex -3.291935463574625 -2.2722589869246224 -50.0
  endloop
endfacet
facet normal 0.0 0.0 -1.0
  outer loop
    vertex -3.291935463574625 -2.2722589869246224 -50.0
    vertex -3.2919354635746245 2.2722589869246232 -50.0
    vertex -2.9940429926844048 -2.6524906329631794 -50.0
  endloop
endfacet
facet normal 0.0 0.0 -1.0
  outer loop
    vertex -2.9940429926844048 -2.6524906329631794 -50.0
    vertex -3.2919354635746245 2.2722589869246232 -50.0
    vertex -2.994042992684403 2.652490632963181 -50.0
  endloop
endfacet
facet normal 0.0 0.0 -1.0
  outer loop
    vertex -2.9940429926844048 -2.6524906329631794 -50.0
    vertex -2.994042992684403 2.652490632963181 -50.0
    vertex -2.6524906329631817 -2.9940429926844034 -50.0
  endloop
endfacet
facet normal 0.0 0.0 -1.0
  outer loop
    vertex -2.6524906329631817 -2.9940429926844034 -50.0
    vertex -2.994042992684403 2.652490632963181 -50.0
    vertex -2.6524906329631794 2.9940429926844048 -50.0
  endloop
endfacet
facet normal 0.0 0.0 -1.0
  outer loop
    vertex -2.6524906329631817 -2.9940429926844034 -50.0
    vertex -2.6524906329631794 2.9940429926844048 -50.0
    vertex -2.2722589869246232 -3.291935463574625 -50.0
  endloop
endfacet
facet normal 0.0 0.0 -1.0
  outer loop
    vertex -2.2722589869246232 -3.291935463574625 -50.0
    vertex -2.6524906329631794 2.9940429926844048 -50.0
    vertex -2.272258986924622 3.291935463574626 -50.0
  endloop
endfacet
facet normal 0.0 0.0 -1.0
  outer loop
    vertex -2.2722589869246232 -3.291935463574625 -50.0
    vertex -2.272258986924622 3.291935463574626 -50.0
    vertex -1.858892688175076 -3.541824102612838 -50.0
  endloop
endfacet
facet normal 0.0 0.0 -1.0
  outer loop
    vertex -1.858892688175076 -3.541824102612838 -50.0
    vertex -2.272258986924622 3.291935463574626 -50.0
    vertex -1.8588926881750736 3.5418241026128388 -50.0
  endloop
endfacet
facet normal 0.0 0.0 -1.0
  outer loop
    vertex -1.858892688175076 -3.541824102612838 -50.0
    vertex -1.8588926881750736 3.5418241026128388 -50.0
    vertex -1.4184195481701434 -3.7400649707416584 -50.0
  endloop
endfacet
facet normal 0.0 0.0 -1.0
  outer loop
    vertex -1.4184195481701434 -3.7400649707416584 -50.0
    vertex -1.8588926881750736 3.5418241026128388 -50.0
    vertex -1.5 0.0 -50.0
  endloop
endfacet
facet normal 0.0 0.0 -1.0
  outer loop
    vertex -1.4184195481701434 -3.7400649707416584 -50.0
    vertex -1.5 0.0 -50.0
    vertex -1.4711779206048456 -0.2926354830241927 -50.0
  endloop
endfacet
facet normal 0.0 0.0 -1.0
  outer loop
    vertex -1.4184195481701434 -3.7400649707416584 -50.0
    vertex -1.4711779206048456 -0.2926354830241927 -50.0
    vertex -1.38581929876693 -0.5740251485476349 -50.0
  endloop
endfacet
facet normal 0.0 0.0 -1.0
  outer loop
    vertex -1.4184195481701434 -3.7400649707416584 -50.0
    vertex -1.38581929876693 -0.5740251485476349 -50.0
    vertex -0.957262657150231 -3.883767269704208 -50.0
  endloop
endfacet
facet normal 0.0 0.0 -1.0
  outer loop
    vertex -0.957262657150231 -3.883767269704208 -50.0
    vertex -1.38581929876693 -0.5740251485476349 -50.0
    vertex -1.247204418453818 -0.833355349529403 -50.0
  endloop
endfacet
facet normal 0.0 0.0 -1.0
  outer loop
    vertex -0.957262657150231 -3.883767269704208 -50.0
    vertex -1.247204418453818 -0.833355349529403 -50.0
    vertex -1.0606601717798214 -1.0606601717798212 -50.0
  endloop
endfacet
facet normal 0.0 0.0 -1.0
  outer loop
    vertex -0.957262657150231 -3.883767269704208 -50.0
    vertex -1.0606601717798214 -1.0606601717798212 -50.0
    vertex -0.8333553495294034 -1.247204418453818 -50.0
  endloop
endfacet
facet normal 0.0 0.0 -1.0
  outer loop
    vertex -0.957262657150231 -3.883767269704208 -50.0
    vertex -0.8333553495294034 -1.247204418453818 -50.0
    vertex -0.4821467210212944 -3.970835496392216 -50.0
  endloop
endfacet
facet normal 0.0 0.0 -1.0
  outer loop
    vertex -0.4821467210212944 -3.970835496392216 -50.0
    vertex -0.8333553495294034 -1.247204418453818 -50.0
    vertex -0.5740251485476356 -1.38581929876693 -50.0
  endloop
endfacet
facet normal 0.0 0.0 -1.0
  outer loop
    vertex -0.4821467210212944 -3.970835496392216 -50.0
    vertex -0.5740251485476356 -1.38581929876693 -50.0
    vertex -0.2926354830241927 -1.4711779206048456 -50.0
  endloop
endfacet
facet normal 0.0 0.0 -1.0
  outer loop
    vertex -0.4821467210212944 -3.970835496392216 -50.0
    vertex -0.2926354830241927 -1.4711779206048456 -50.0
    vertex -7.049916206369744e-16 -3.9999999999999996 -50.0
  endloop
endfacet
facet normal 0.0 0.0 -1.0
  outer loop
    vertex -7.049916206369744e-16 -3.9999999999999996 -50.0
    vertex -0.2926354830241927 -1.4711779206048456 -50.0
    vertex 0.0 -1.5 -50.0
  endloop
endfacet
facet normal 0.0 0.0 -1.0
  outer loop
    vertex -7.049916206369744e-16 -3.9999999999999996 -50.0
    vertex 0.0 -1.5 -50.0
    vertex 0.48214672102128947 -3.970835496392216 -50.0
  endloop
endfacet
facet normal 0.0 0.0 -1.0
  outer loop
    vertex 0.48214672102128947 -3.970835496392216 -50.0
    vertex 0.0 -1.5 -50.0
    vertex 0.2926354830241927 -1.4711779206048456 -50.0
  endloop
endfacet
facet normal 0.0 0.0 -1.0
  outer loop
    vertex 0.48214672102128947 -3.970835496392216 -50.0
    vertex 0.2926354830241927 -1.4711779206048456 -50.0
    vertex 0.5740251485476349 -1.38581929876693 -50.0
  endloop
endfacet
facet normal 0.0 0.0 -1.0
  outer loop
    vertex 0.48214672102128947 -3.970835496392216 -50.0
    vertex 0.5740251485476349 -1.38581929876693 -50.0
    vertex 0.9572626571502295 -3.883767269704208 -50.0
  endloop
endfacet
facet normal 0.0 0.0 -1.0
  outer loop
    vertex 0.9572626571502295 -3.883767269704208 -50.0
    vertex 0.5740251485476349 -1.38581929876693 -50.0
    vertex 0.8333553495294027 -1.2472044184538185 -50.0
  endloop
endfacet
facet normal 0.0 0.0 -1.0
  outer loop
    vertex 0.9572626571502295 -3.883767269704208 -50.0
    vertex 0.8333553495294027 -1.2472044184538185 -50.0
    vertex 1.0606601717798212 -1.0606601717798219 -50.0
  endloop
endfacet
facet normal 0.0 0.0 -1.0
  outer loop
    vertex 0.9572626571502295 -3.883767269704208 -50.0
    vertex 1.0606601717798212 -1.0606601717798219 -50.0
    vertex 1.4184195481701418 -3.7400649707416593 -50.0
  endloop
endfacet
facet normal 0.0 0.0 -1.0
  outer loop
    vertex 1.4184195481701418 -3.7400649707416593 -50.0
    vertex 1.0606601717798212 -1.0606601717798219 -50.0
    vertex 1.2472044184538174 -0.8333553495294034 -50.0
  endloop
endfacet
facet normal 0.0 0.0 -1.0
  outer loop
    vertex 1.4184195481701418 -3.7400649707416593 -50.0
    vertex 1.2472044184538174 -0.8333553495294034 -50.0
    vertex 1.38581929876693 -0.5740251485476356 -50.0
  endloop
endfacet
facet normal 0.0 0.0 -1.0
  outer loop
    vertex 1.4184195481701418 -3.7400649707416593 -50.0
    vertex 1.38581929876693 -0.5740251485476356 -50.0
    vertex 1.471177920604845 -0.29263548302419334 -50.0
  endloop
endfacet
facet normal 0.0 0.0 -1.0
  outer loop
    vertex 1.4184195481701418 -3.7400649707416593 -50.0
    vertex 1.471177920604845 -0.29263548302419334 -50.0
    vertex 1.8588926881750718 -3.54182410261284 -50.0
  endloop
endfacet
facet normal 0.0 0.0 -1.0
  outer loop
    vertex 1.8588926881750718 -3.54182410261284 -50.0
    vertex 1.471177920604845 -0.29263548302419334 -50.0
    vertex 1.5 0.0 -50.0
  endloop
endfacet
facet normal -0.9836199069471433 0.18025503781390723 0.0
  outer loop
    vertex -3.8837672697042067 0.9572626571502323 0.0
    vertex -3.970835496392215 0.4821467210212937 -50.0
    vertex -3.970835496392215 0.4821467210212937 0.0
  endloop
endfacet
facet normal -0.9836199069471433 0.18025503781390723 0.0
  outer loop
    vertex -3.970835496392215 0.4821467210212937 -50.0
    vertex -3.8837672697042067 0.9572626571502323 0.0
    vertex -3.8837672697042067 0.9572626571502323 -50.0
  endloop
endfacet
facet normal -0.9547208665085456 0.297503053855203 0.0
  outer loop
    vertex -3.740064970741658 1.4184195481701434 0.0
    vertex -3.8837672697042067 0.9572626571502323 -50.0
    vertex -3.8837672697042067 0.9572626571502323 0.0
  endloop
endfacet
facet normal -0.9547208665085456 0.297503053855203 0.0
  outer loop
    vertex -3.8837672697042067 0.9572626571502323 -50.0
    vertex -3.740064970741658 1.4184195481701434 0.0
    vertex -3.740064970741658 1.4184195481701434 -50.0
  endloop
endfacet
facet normal -0.41041280545275693 0.9118998459920901 0.0
  outer loop
    vertex -1.8588926881750736 3.5418241026128388 0.0
    vertex -1.4184195481701416 3.7400649707416598 -50.0
    vertex -1.8588926881750736 3.5418241026128388 -50.0
  endloop
endfacet
facet normal -0.41041280545275693 0.9118998459920901 0.0
  outer loop
    vertex -1.4184195481701416 3.7400649707416598 -50.0
    vertex -1.8588926881750736 3.5418241026128388 0.0
    vertex -1.4184195481701416 3.7400649707416598 0.0
  endloop
endfacet
facet normal -0.9118998459920904 0.4104128054527563 0.0
  outer loop
    vertex -3.5418241026128388 1.8588926881750747 0.0
    vertex -3.740064970741658 1.4184195481701434 -50.0
    vertex -3.740064970741658 1.4184195481701434 0.0
  endloop
endfacet
facet normal -0.9118998459920904 0.4104128054527563 0.0
  outer loop
    vertex -3.740064970741658 1.4184195481701434 -50.0
    vertex -3.5418241026128388 1.8588926881750747 0.0
    vertex -3.5418241026128388 1.8588926881750747 -50.0
  endloop
endfacet
facet normal -0.8557812723014471 0.5173378141776577 0.0
  outer loop
    vertex -3.2919354635746245 2.2722589869246232 0.0
    vertex -3.5418241026128388 1.8588926881750747 -50.0
    vertex -3.5418241026128388 1.8588926881750747 0.0
  endloop
endfacet
facet normal -0.8557812723014471 0.5173378141776577 0.0
  outer loop
    vertex -3.5418241026128388 1.8588926881750747 -50.0
    vertex -3.2919354635746245 2.2722589869246232 0.0
    vertex -3.2919354635746245 2.2722589869246232 -50.0
  endloop
endfacet
facet normal -0.7871834806090506 0.6167188726285427 0.0
  outer loop
    vertex -2.994042992684403 2.652490632963181 0.0
    vertex -3.2919354635746245 2.2722589869246232 -50.0
    vertex -3.2919354635746245 2.2722589869246232 0.0
  endloop
endfacet
facet normal -0.7871834806090506 0.6167188726285427 0.0
  outer loop
    vertex -3.2919354635746245 2.2722589869246232 -50.0
    vertex -2.994042992684403 2.652490632963181 0.0
    vertex -2.994042992684403 2.652490632963181 -50.0
  endloop
endfacet
facet normal -0.7071067811865476 0.7071067811865476 0.0
  outer loop
    vertex -2.6524906329631794 2.9940429926844048 0.0
    vertex -2.994042992684403 2.652490632963181 -50.0
    vertex -2.994042992684403 2.652490632963181 0.0
  endloop
endfacet
facet normal -0.7071067811865476 0.7071067811865476 0.0
  outer loop
    vertex -2.994042992684403 2.652490632963181 -50.0
    vertex -2.6524906329631794 2.9940429926844048 0.0
    vertex -2.6524906329631794 2.9940429926844048 -50.0
  endloop
endfacet
facet normal -0.6167188726285429 0.7871834806090503 0.0
  outer loop
    vertex -2.6524906329631794 2.9940429926844048 0.0
    vertex -2.272258986924622 3.291935463574626 -50.0
    vertex -2.6524906329631794 2.9940429926844048 -50.0
  endloop
endfacet
facet normal -0.6167188726285429 0.7871834806090503 0.0
  outer loop
    vertex -2.272258986924622 3.291935463574626 -50.0
    vertex -2.6524906329631794 2.9940429926844048 0.0
    vertex -2.272258986924622 3.291935463574626 0.0
  endloop
endfacet
facet normal -0.5173378141776566 0.8557812723014477 0.0
  outer loop
    vertex -2.272258986924622 3.291935463574626 0.0
    vertex -1.8588926881750736 3.5418241026128388 -50.0
    vertex -2.272258986924622 3.291935463574626 -50.0
  endloop
endfacet
facet normal -0.5173378141776566 0.8557812723014477 0.0
  outer loop
    vertex -1.8588926881750736 3.5418241026128388 -50.0
    vertex -2.272258986924622 3.291935463574626 0.0
    vertex -1.8588926881750736 3.5418241026128388 0.0
  endloop
endfacet
facet normal -0.297503053855203 0.9547208665085456 0.0
  outer loop
    vertex -1.4184195481701416 3.7400649707416598 0.0
    vertex -0.9572626571502305 3.883767269704208 -50.0
    vertex -1.4184195481701416 3.7400649707416598 -50.0
  endloop
endfacet
facet normal -0.297503053855203 0.9547208665085456 0.0
  outer loop
    vertex -0.9572626571502305 3.883767269704208 -50.0
    vertex -1.4184195481701416 3.7400649707416598 0.0
    vertex -0.9572626571502305 3.883767269704208 0.0
  endloop
endfacet
facet normal -0.18025503781390556 0.9836199069471436 0.0
  outer loop
    vertex -0.9572626571502305 3.883767269704208 0.0
    vertex -0.4821467210212916 3.970835496392216 -50.0
    vertex -0.9572626571502305 3.883767269704208 -50.0
  endloop
endfacet
facet normal -0.18025503781390556 0.9836199069471436 0.0
  outer loop
    vertex -0.4821467210212916 3.970835496392216 -50.0
    vertex -0.9572626571502305 3.883767269704208 0.0
    vertex -0.4821467210212916 3.970835496392216 0.0
  endloop
endfacet
facet normal 0.41041280545275655 0.9118998459920902 0.0
  outer loop
    vertex 1.4184195481701434 3.7400649707416584 0.0
    vertex 1.8588926881750738 3.5418241026128388 -50.0
    vertex 1.4184195481701434 3.7400649707416584 -50.0
  endloop
endfacet
facet normal 0.41041280545275655 0.9118998459920902 0.0
  outer loop
    vertex 1.8588926881750738 3.5418241026128388 -50.0
    vertex 1.4184195481701434 3.7400649707416584 0.0
    vertex 1.8588926881750738 3.5418241026128388 0.0
  endloop
endfacet
facet normal -0.06037849742228608 0.9981755542233176 0.0
  outer loop
    vertex -0.4821467210212916 3.970835496392216 0.0
    vertex 0.0 3.9999999999999996 -50.0
    vertex -0.4821467210212916 3.970835496392216 -50.0
  endloop
endfacet
facet normal -0.06037849742228608 0.9981755542233176 0.0
  outer loop
    vertex 0.0 3.9999999999999996 -50.0
    vertex -0.4821467210212916 3.970835496392216 0.0
    vertex 0.0 3.9999999999999996 0.0
  endloop
endfacet
facet normal 0.06037849742228598 0.9981755542233176 0.0
  outer loop
    vertex 0.0 3.9999999999999996 0.0
    vertex 0.482146721021293 3.970835496392216 -50.0
    vertex 0.0 3.9999999999999996 -50.0
  endloop
endfacet
facet normal 0.06037849742228598 0.9981755542233176 0.0
  outer loop
    vertex 0.482146721021293 3.970835496392216 -50.0
    vertex 0.0 3.9999999999999996 0.0
    vertex 0.482146721021293 3.970835496392216 0.0
  endloop
endfacet
facet normal 0.18025503781390584 0.9836199069471436 0.0
  outer loop
    vertex 0.482146721021293 3.970835496392216 0.0
    vertex 0.957262657150231 3.883767269704208 -50.0
    vertex 0.482146721021293 3.970835496392216 -50.0
  endloop
endfacet
facet normal 0.18025503781390584 0.9836199069471436 0.0
  outer loop
    vertex 0.957262657150231 3.883767269704208 -50.0
    vertex 0.482146721021293 3.970835496392216 0.0
    vertex 0.957262657150231 3.883767269704208 0.0
  endloop
endfacet
facet normal 0.2975030538552038 0.9547208665085454 0.0
  outer loop
    vertex 0.957262657150231 3.883767269704208 0.0
    vertex 1.4184195481701434 3.7400649707416584 -50.0
    vertex 0.957262657150231 3.883767269704208 -50.0
  endloop
endfacet
facet normal 0.2975030538552038 0.9547208665085454 0.0
  outer loop
    vertex 1.4184195481701434 3.7400649707416584 -50.0
    vertex 0.957262657150231 3.883767269704208 0.0
    vertex 1.4184195481701434 3.7400649707416584 0.0
  endloop
endfacet
facet normal 0.5173378141776567 0.8557812723014476 0.0
  outer loop
    vertex 1.8588926881750738 3.5418241026128388 0.0
    vertex 2.2722589869246232 3.2919354635746245 -50.0
    vertex 1.8588926881750738 3.5418241026128388 -50.0
  endloop
endfacet
facet normal 0.5173378141776567 0.8557812723014476 0.0
  outer loop
    vertex 2.2722589869246232 3.2919354635746245 -50.0
    vertex 1.8588926881750738 3.5418241026128388 0.0
    vertex 2.2722589869246232 3.2919354635746245 0.0
  endloop
endfacet
facet normal 0.7071067811865476 0.7071067811865476 0.0
  outer loop
    vertex 2.6524906329631803 2.9940429926844034 -50.0
    vertex 2.9940429926844043 2.652490632963181 0.0
    vertex 2.9940429926844043 2.652490632963181 -50.0
  endloop
endfacet
facet normal 0.7071067811865476 0.7071067811865476 0.0
  outer loop
    vertex 2.9940429926844043 2.652490632963181 0.0
    vertex 2.6524906329631803 2.9940429926844034 -50.0
    vertex 2.6524906329631803 2.9940429926844034 0.0
  endloop
endfacet
facet normal 0.7871834806090509 0.6167188726285422 0.0
  outer loop
    vertex 2.9940429926844043 2.652490632963181 -50.0
    vertex 3.291935463574625 2.272258986924623 0.0
    vertex 3.291935463574625 2.272258986924623 -50.0
  endloop
endfacet
facet normal 0.7871834806090509 0.6167188726285422 0.0
  outer loop
    vertex 3.291935463574625 2.272258986924623 0.0
    vertex 2.9940429926844043 2.652490632963181 -50.0
    vertex 2.9940429926844043 2.652490632963181 0.0
  endloop
endfacet
facet normal 0.6167188726285429 0.7871834806090503 0.0
  outer loop
    vertex 2.2722589869246232 3.2919354635746245 0.0
    vertex 2.6524906329631803 2.9940429926844034 -50.0
    vertex 2.2722589869246232 3.2919354635746245 -50.0
  endloop
endfacet
facet normal 0.6167188726285429 0.7871834806090503 0.0
  outer loop
    vertex 2.6524906329631803 2.9940429926844034 -50.0
    vertex 2.2722589869246232 3.2919354635746245 0.0
    vertex 2.6524906329631803 2.9940429926844034 0.0
  endloop
endfacet
facet normal 0.8557812723014477 0.5173378141776562 0.0
  outer loop
    vertex 3.291935463574625 2.272258986924623 -50.0
    vertex 3.541824102612839 1.8588926881750738 0.0
    vertex 3.541824102612839 1.8588926881750738 -50.0
  endloop
endfacet
facet normal 0.8557812723014477 0.5173378141776562 0.0
  outer loop
    vertex 3.541824102612839 1.8588926881750738 0.0
    vertex 3.291935463574625 2.272258986924623 -50.0
    vertex 3.291935463574625 2.272258986924623 0.0
  endloop
endfacet
facet normal 0.9836199069471436 0.18025503781390564 0.0
  outer loop
    vertex 3.883767269704207 0.957262657150231 -50.0
    vertex 3.970835496392215 0.4821467210212923 0.0
    vertex 3.970835496392215 0.4821467210212923 -50.0
  endloop
endfacet
facet normal 0.9836199069471436 0.18025503781390564 0.0
  outer loop
    vertex 3.970835496392215 0.4821467210212923 0.0
    vertex 3.883767269704207 0.957262657150231 -50.0
    vertex 3.883767269704207 0.957262657150231 0.0
  endloop
endfacet
facet normal 0.91189984599209 0.4104128054527572 0.0
  outer loop
    vertex 3.541824102612839 1.8588926881750738 -50.0
    vertex 3.740064970741658 1.4184195481701425 0.0
    vertex 3.740064970741658 1.4184195481701425 -50.0
  endloop
endfacet
facet normal 0.91189984599209 0.4104128054527572 0.0
  outer loop
    vertex 3.740064970741658 1.4184195481701425 0.0
    vertex 3.541824102612839 1.8588926881750738 -50.0
    vertex 3.541824102612839 1.8588926881750738 0.0
  endloop
endfacet
facet normal 0.9547208665085457 0.2975030538552028 0.0
  outer loop
    vertex 3.740064970741658 1.4184195481701425 -50.0
    vertex 3.883767269704207 0.957262657150231 0.0
    vertex 3.883767269704207 0.957262657150231 -50.0
  endloop
endfacet
facet normal 0.9547208665085457 0.2975030538552028 0.0
  outer loop
    vertex 3.883767269704207 0.957262657150231 0.0
    vertex 3.740064970741658 1.4184195481701425 -50.0
    vertex 3.740064970741658 1.4184195481701425 0.0
  endloop
endfacet
facet normal 0.9981755542233175 0.06037849742228602 0.0
  outer loop
    vertex 3.970835496392215 0.4821467210212923 -50.0
    vertex 3.999999999999999 0.0 0.0
    vertex 3.999999999999999 0.0 -50.0
  endloop
endfacet
facet normal 0.9981755542233175 0.06037849742228602 0.0
  outer loop
    vertex 3.999999999999999 0.0 0.0
    vertex 3.970835496392215 0.4821467210212923 -50.0
    vertex 3.970835496392215 0.4821467210212923 0.0
  endloop
endfacet
facet normal 0.9981755542233176 -0.06037849742228573 0.0
  outer loop
    vertex 3.999999999999999 0.0 -50.0
    vertex 3.970835496392215 -0.4821467210212944 0.0
    vertex 3.970835496392215 -0.4821467210212944 -50.0
  endloop
endfacet
facet normal 0.9981755542233176 -0.06037849742228573 0.0
  outer loop
    vertex 3.970835496392215 -0.4821467210212944 0.0
    vertex 3.999999999999999 0.0 -50.0
    vertex 3.999999999999999 0.0 0.0
  endloop
endfacet
facet normal 0.9836199069471435 -0.1802550378139066 0.0
  outer loop
    vertex 3.970835496392215 -0.4821467210212944 -50.0
    vertex 3.883767269704206 -0.9572626571502344 0.0
    vertex 3.883767269704206 -0.9572626571502344 -50.0
  endloop
endfacet
facet normal 0.9836199069471435 -0.1802550378139066 0.0
  outer loop
    vertex 3.883767269704206 -0.9572626571502344 0.0
    vertex 3.970835496392215 -0.4821467210212944 -50.0
    vertex 3.970835496392215 -0.4821467210212944 0.0
  endloop
endfacet
facet normal 0.9547208665085454 -0.29750305385520415 0.0
  outer loop
    vertex 3.883767269704206 -0.9572626571502344 -50.0
    vertex 3.740064970741658 -1.4184195481701436 0.0
    vertex 3.740064970741658 -1.4184195481701436 -50.0
  endloop
endfacet
facet normal 0.9547208665085454 -0.29750305385520415 0.0
  outer loop
    vertex 3.740064970741658 -1.4184195481701436 0.0
    vertex 3.883767269704206 -0.9572626571502344 -50.0
    vertex 3.883767269704206 -0.9572626571502344 0.0
  endloop
endfacet
facet normal 0.7871834806090506 -0.6167188726285427 0.0
  outer loop
    vertex 3.291935463574625 -2.2722589869246237 -50.0
    vertex 2.994042992684403 -2.652490632963182 0.0
    vertex 2.994042992684403 -2.652490632963182 -50.0
  endloop
endfacet
facet normal 0.7871834806090506 -0.6167188726285427 0.0
  outer loop
    vertex 2.994042992684403 -2.652490632963182 0.0
    vertex 3.291935463574625 -2.2722589869246237 -50.0
    vertex 3.291935463574625 -2.2722589869246237 0.0
  endloop
endfacet
facet normal 0.9118998459920898 -0.4104128054527573 0.0
  outer loop
    vertex 3.740064970741658 -1.4184195481701436 -50.0
    vertex 3.5418241026128365 -1.8588926881750767 0.0
    vertex 3.5418241026128365 -1.8588926881750767 -50.0
  endloop
endfacet
facet normal 0.9118998459920898 -0.4104128054527573 0.0
  outer loop
    vertex 3.5418241026128365 -1.8588926881750767 0.0
    vertex 3.740064970741658 -1.4184195481701436 -50.0
    vertex 3.740064970741658 -1.4184195481701436 0.0
  endloop
endfacet
facet normal 0.8557812723014475 -0.5173378141776568 0.0
  outer loop
    vertex 3.5418241026128365 -1.8588926881750767 -50.0
    vertex 3.291935463574625 -2.2722589869246237 0.0
    vertex 3.291935463574625 -2.2722589869246237 -50.0
  endloop
endfacet
facet normal 0.8557812723014475 -0.5173378141776568 0.0
  outer loop
    vertex 3.291935463574625 -2.2722589869246237 0.0
    vertex 3.5418241026128365 -1.8588926881750767 -50.0
    vertex 3.5418241026128365 -1.8588926881750767 0.0
  endloop
endfacet
facet normal 0.7071067811865468 -0.7071067811865483 0.0
  outer loop
    vertex 2.994042992684403 -2.652490632963182 0.0
    vertex 2.6524906329631777 -2.9940429926844065 -50.0
    vertex 2.994042992684403 -2.652490632963182 -50.0
  endloop
endfacet
facet normal 0.7071067811865468 -0.7071067811865483 0.0
  outer loop
    vertex 2.6524906329631777 -2.9940429926844065 -50.0
    vertex 2.994042992684403 -2.652490632963182 0.0
    vertex 2.6524906329631777 -2.9940429926844065 0.0
  endloop
endfacet
facet normal 0.5173378141776557 -0.8557812723014482 0.0
  outer loop
    vertex 2.272258986924622 -3.291935463574626 0.0
    vertex 1.8588926881750718 -3.54182410261284 -50.0
    vertex 2.272258986924622 -3.291935463574626 -50.0
  endloop
endfacet
facet normal 0.5173378141776557 -0.8557812723014482 0.0
  outer loop
    vertex 1.8588926881750718 -3.54182410261284 -50.0
    vertex 2.272258986924622 -3.291935463574626 0.0
    vertex 1.8588926881750718 -3.54182410261284 0.0
  endloop
endfacet
facet normal 0.4104128054527578 -0.9118998459920897 0.0
  outer loop
    vertex 1.8588926881750718 -3.54182410261284 0.0
    vertex 1.4184195481701418 -3.7400649707416593 -50.0
    vertex 1.8588926881750718 -3.54182410261284 -50.0
  endloop
endfacet
facet normal 0.4104128054527578 -0.9118998459920897 0.0
  outer loop
    vertex 1.4184195481701418 -3.7400649707416593 -50.0
    vertex 1.8588926881750718 -3.54182410261284 0.0
    vertex 1.4184195481701418 -3.7400649707416593 0.0
  endloop
endfacet
facet normal 0.297503053855202 -0.954720866508546 0.0
  outer loop
    vertex 1.4184195481701418 -3.7400649707416593 0.0
    vertex 0.9572626571502295 -3.883767269704208 -50.0
    vertex 1.4184195481701418 -3.7400649707416593 -50.0
  endloop
endfacet
facet normal 0.297503053855202 -0.954720866508546 0.0
  outer loop
    vertex 0.9572626571502295 -3.883767269704208 -50.0
    vertex 1.4184195481701418 -3.7400649707416593 0.0
    vertex 0.9572626571502295 -3.883767269704208 0.0
  endloop
endfacet
facet normal 0.6167188726285424 -0.7871834806090507 0.0
  outer loop
    vertex 2.6524906329631777 -2.9940429926844065 0.0
    vertex 2.272258986924622 -3.291935463574626 -50.0
    vertex 2.6524906329631777 -2.9940429926844065 -50.0
  endloop
endfacet
facet normal 0.6167188726285424 -0.7871834806090507 0.0
  outer loop
    vertex 2.272258986924622 -3.291935463574626 -50.0
    vertex 2.6524906329631777 -2.9940429926844065 0.0
    vertex 2.272258986924622 -3.291935463574626 0.0
  endloop
endfacet
facet normal 0.060378497422286306 -0.9981755542233176 0.0
  outer loop
    vertex 0.48214672102128947 -3.970835496392216 0.0
    vertex -7.049916206369744e-16 -3.9999999999999996 -50.0
    vertex 0.48214672102128947 -3.970835496392216 -50.0
  endloop
endfacet
facet normal 0.060378497422286306 -0.9981755542233176 0.0
  outer loop
    vertex -7.049916206369744e-16 -3.9999999999999996 -50.0
    vertex 0.48214672102128947 -3.970835496392216 0.0
    vertex -7.049916206369744e-16 -3.9999999999999996 0.0
  endloop
endfacet
facet normal -0.06037849742228586 -0.9981755542233176 -0.0
  outer loop
    vertex -7.049916206369744e-16 -3.9999999999999996 0.0
    vertex -0.4821467210212944 -3.970835496392216 -50.0
    vertex -7.049916206369744e-16 -3.9999999999999996 -50.0
  endloop
endfacet
facet normal -0.06037849742228586 -0.9981755542233176 -0.0
  outer loop
    vertex -0.4821467210212944 -3.970835496392216 -50.0
    vertex -7.049916206369744e-16 -3.9999999999999996 0.0
    vertex -0.4821467210212944 -3.970835496392216 0.0
  endloop
endfacet
facet normal 0.18025503781390517 -0.9836199069471439 0.0
  outer loop
    vertex 0.9572626571502295 -3.883767269704208 0.0
    vertex 0.48214672102128947 -3.970835496392216 -50.0
    vertex 0.9572626571502295 -3.883767269704208 -50.0
  endloop
endfacet
facet normal 0.18025503781390517 -0.9836199069471439 0.0
  outer loop
    vertex 0.48214672102128947 -3.970835496392216 -50.0
    vertex 0.9572626571502295 -3.883767269704208 0.0
    vertex 0.48214672102128947 -3.970835496392216 0.0
  endloop
endfacet
facet normal -0.18025503781390645 -0.9836199069471435 -0.0
  outer loop
    vertex -0.4821467210212944 -3.970835496392216 0.0
    vertex -0.957262657150231 -3.883767269704208 -50.0
    vertex -0.4821467210212944 -3.970835496392216 -50.0
  endloop
endfacet
facet normal -0.18025503781390645 -0.9836199069471435 -0.0
  outer loop
    vertex -0.957262657150231 -3.883767269704208 -50.0
    vertex -0.4821467210212944 -3.970835496392216 0.0
    vertex -0.957262657150231 -3.883767269704208 0.0
  endloop
endfacet
facet normal -0.29750305385520337 -0.9547208665085455 -0.0
  outer loop
    vertex -0.957262657150231 -3.883767269704208 0.0
    vertex -1.4184195481701434 -3.7400649707416584 -50.0
    vertex -0.957262657150231 -3.883767269704208 -50.0
  endloop
endfacet
facet normal -0.29750305385520337 -0.9547208665085455 -0.0
  outer loop
    vertex -1.4184195481701434 -3.7400649707416584 -50.0
    vertex -0.957262657150231 -3.883767269704208 0.0
    vertex -1.4184195481701434 -3.7400649707416584 0.0
  endloop
endfacet
facet normal -0.4104128054527576 -0.9118998459920897 -0.0
  outer loop
    vertex -1.4184195481701434 -3.7400649707416584 0.0
    vertex -1.858892688175076 -3.541824102612838 -50.0
    vertex -1.4184195481701434 -3.7400649707416584 -50.0
  endloop
endfacet
facet normal -0.4104128054527576 -0.9118998459920897 -0.0
  outer loop
    vertex -1.858892688175076 -3.541824102612838 -50.0
    vertex -1.4184195481701434 -3.7400649707416584 0.0
    vertex -1.858892688175076 -3.541824102612838 0.0
  endloop
endfacet
facet normal -0.7871834806090506 -0.6167188726285424 -0.0
  outer loop
    vertex -3.291935463574625 -2.2722589869246224 0.0
    vertex -2.9940429926844048 -2.6524906329631794 -50.0
    vertex -2.9940429926844048 -2.6524906329631794 0.0
  endloop
endfacet
facet normal -0.7871834806090506 -0.6167188726285424 -0.0
  outer loop
    vertex -2.9940429926844048 -2.6524906329631794 -50.0
    vertex -3.291935463574625 -2.2722589869246224 0.0
    vertex -3.291935463574625 -2.2722589869246224 -50.0
  endloop
endfacet
facet normal -0.5173378141776565 -0.8557812723014477 -0.0
  outer loop
    vertex -1.858892688175076 -3.541824102612838 0.0
    vertex -2.2722589869246232 -3.291935463574625 -50.0
    vertex -1.858892688175076 -3.541824102612838 -50.0
  endloop
endfacet
facet normal -0.5173378141776565 -0.8557812723014477 -0.0
  outer loop
    vertex -2.2722589869246232 -3.291935463574625 -50.0
    vertex -1.858892688175076 -3.541824102612838 0.0
    vertex -2.2722589869246232 -3.291935463574625 0.0
  endloop
endfacet
facet normal -0.6167188726285432 -0.7871834806090501 -0.0
  outer loop
    vertex -2.2722589869246232 -3.291935463574625 0.0
    vertex -2.6524906329631817 -2.9940429926844034 -50.0
    vertex -2.2722589869246232 -3.291935463574625 -50.0
  endloop
endfacet
facet normal -0.6167188726285432 -0.7871834806090501 -0.0
  outer loop
    vertex -2.6524906329631817 -2.9940429926844034 -50.0
    vertex -2.2722589869246232 -3.291935463574625 0.0
    vertex -2.6524906329631817 -2.9940429926844034 0.0
  endloop
endfacet
facet normal -0.7071067811865482 -0.7071067811865468 -0.0
  outer loop
    vertex -2.9940429926844048 -2.6524906329631794 0.0
    vertex -2.6524906329631817 -2.9940429926844034 -50.0
    vertex -2.6524906329631817 -2.9940429926844034 0.0
  endloop
endfacet
facet normal -0.7071067811865482 -0.7071067811865468 -0.0
  outer loop
    vertex -2.6524906329631817 -2.9940429926844034 -50.0
    vertex -2.9940429926844048 -2.6524906329631794 0.0
    vertex -2.9940429926844048 -2.6524906329631794 -50.0
  endloop
endfacet
facet normal -0.9836199069471437 -0.18025503781390573 -0.0
  outer loop
    vertex -3.970835496392215 -0.4821467210212916 0.0
    vertex -3.883767269704207 -0.9572626571502298 -50.0
    vertex -3.883767269704207 -0.9572626571502298 0.0
  endloop
endfacet
facet normal -0.9836199069471437 -0.18025503781390573 -0.0
  outer loop
    vertex -3.883767269704207 -0.9572626571502298 -50.0
    vertex -3.970835496392215 -0.4821467210212916 0.0
    vertex -3.970835496392215 -0.4821467210212916 -50.0
  endloop
endfacet
facet normal -0.8557812723014477 -0.5173378141776562 -0.0
  outer loop
    vertex -3.5418241026128388 -1.8588926881750736 0.0
    vertex -3.291935463574625 -2.2722589869246224 -50.0
    vertex -3.291935463574625 -2.2722589869246224 0.0
  endloop
endfacet
facet normal -0.8557812723014477 -0.5173378141776562 -0.0
  outer loop
    vertex -3.291935463574625 -2.2722589869246224 -50.0
    vertex -3.5418241026128388 -1.8588926881750736 0.0
    vertex -3.5418241026128388 -1.8588926881750736 -50.0
  endloop
endfacet
facet normal -0.9981755542233176 -0.06037849742228608 -0.0
  outer loop
    vertex -3.999999999999999 7.049916206369744e-16 0.0
    vertex -3.970835496392215 -0.4821467210212916 -50.0
    vertex -3.970835496392215 -0.4821467210212916 0.0
  endloop
endfacet
facet normal -0.9981755542233176 -0.06037849742228608 -0.0
  outer loop
    vertex -3.970835496392215 -0.4821467210212916 -50.0
    vertex -3.999999999999999 7.049916206369744e-16 0.0
    vertex -3.999999999999999 7.049916206369744e-16 -50.0
  endloop
endfacet
facet normal -0.9118998459920904 -0.41041280545275644 -0.0
  outer loop
    vertex -3.7400649707416584 -1.418419548170141 0.0
    vertex -3.5418241026128388 -1.8588926881750736 -50.0
    vertex -3.5418241026128388 -1.8588926881750736 0.0
  endloop
endfacet
facet normal -0.9118998459920904 -0.41041280545275644 -0.0
  outer loop
    vertex -3.5418241026128388 -1.8588926881750736 -50.0
    vertex -3.7400649707416584 -1.418419548170141 0.0
    vertex -3.7400649707416584 -1.418419548170141 -50.0
  endloop
endfacet
facet normal -0.9547208665085456 -0.297503053855203 -0.0
  outer loop
    vertex -3.883767269704207 -0.9572626571502298 0.0
    vertex -3.7400649707416584 -1.418419548170141 -50.0
    vertex -3.7400649707416584 -1.418419548170141 0.0
  endloop
endfacet
facet normal -0.9547208665085456 -0.297503053855203 -0.0
  outer loop
    vertex -3.7400649707416584 -1.418419548170141 -50.0
    vertex -3.883767269704207 -0.9572626571502298 0.0
    vertex -3.883767269704207 -0.9572626571502298 -50.0
  endloop
endfacet
facet normal -0.9981755542233176 0.06037849742228586 0.0
  outer loop
    vertex -3.970835496392215 0.4821467210212937 0.0
    vertex -3.999999999999999 7.049916206369744e-16 -50.0
    vertex -3.999999999999999 7.049916206369744e-16 0.0
  endloop
endfacet
facet normal -0.9981755542233176 0.06037849742228586 0.0
  outer loop
    vertex -3.999999999999999 7.049916206369744e-16 -50.0
    vertex -3.970835496392215 0.4821467210212937 0.0
    vertex -3.970835496392215 0.4821467210212937 -50.0
  endloop
endfacet
facet normal -0.9569403357322089 -0.2902846772544626 -0.0
  outer loop
    vertex 1.38581929876693 0.5740251485476349 0.0
    vertex 1.4711779206048456 0.2926354830241927 -50.0
    vertex 1.4711779206048456 0.2926354830241927 0.0
  endloop
endfacet
facet normal -0.9569403357322089 -0.2902846772544626 -0.0
  outer loop
    vertex 1.4711779206048456 0.2926354830241927 -50.0
    vertex 1.38581929876693 0.5740251485476349 0.0
    vertex 1.38581929876693 0.5740251485476349 -50.0
  endloop
endfacet
facet normal -0.8819212643483552 -0.47139673682599725 -0.0
  outer loop
    vertex 1.2472044184538174 0.8333553495294034 0.0
    vertex 1.38581929876693 0.5740251485476349 -50.0
    vertex 1.38581929876693 0.5740251485476349 0.0
  endloop
endfacet
facet normal -0.8819212643483552 -0.47139673682599725 -0.0
  outer loop
    vertex 1.38581929876693 0.5740251485476349 -50.0
    vertex 1.2472044184538174 0.8333553495294034 0.0
    vertex 1.2472044184538174 0.8333553495294034 -50.0
  endloop
endfacet
facet normal -0.7730104533627371 -0.6343932841636455 -0.0
  outer loop
    vertex 1.0606601717798212 1.0606601717798212 0.0
    vertex 1.2472044184538174 0.8333553495294034 -50.0
    vertex 1.2472044184538174 0.8333553495294034 0.0
  endloop
endfacet
facet normal -0.7730104533627371 -0.6343932841636455 -0.0
  outer loop
    vertex 1.2472044184538174 0.8333553495294034 -50.0
    vertex 1.0606601717798212 1.0606601717798212 0.0
    vertex 1.0606601717798212 1.0606601717798212 -50.0
  endloop
endfacet
facet normal -0.6343932841636452 -0.7730104533627372 -0.0
  outer loop
    vertex 1.0606601717798212 1.0606601717798212 0.0
    vertex 0.8333553495294034 1.247204418453818 -50.0
    vertex 1.0606601717798212 1.0606601717798212 -50.0
  endloop
endfacet
facet normal -0.6343932841636452 -0.7730104533627372 -0.0
  outer loop
    vertex 0.8333553495294034 1.247204418453818 -50.0
    vertex 1.0606601717798212 1.0606601717798212 0.0
    vertex 0.8333553495294034 1.247204418453818 0.0
  endloop
endfacet
facet normal -0.47139673682599803 -0.8819212643483548 -0.0
  outer loop
    vertex 0.8333553495294034 1.247204418453818 0.0
    vertex 0.5740251485476349 1.38581929876693 -50.0
    vertex 0.8333553495294034 1.247204418453818 -50.0
  endloop
endfacet
facet normal -0.47139673682599803 -0.8819212643483548 -0.0
  outer loop
    vertex 0.5740251485476349 1.38581929876693 -50.0
    vertex 0.8333553495294034 1.247204418453818 0.0
    vertex 0.5740251485476349 1.38581929876693 0.0
  endloop
endfacet
facet normal -0.2902846772544626 -0.9569403357322087 -0.0
  outer loop
    vertex 0.5740251485476349 1.38581929876693 0.0
    vertex 0.2926354830241927 1.4711779206048456 -50.0
    vertex 0.5740251485476349 1.38581929876693 -50.0
  endloop
endfacet
facet normal -0.2902846772544626 -0.9569403357322087 -0.0
  outer loop
    vertex 0.2926354830241927 1.4711779206048456 -50.0
    vertex 0.5740251485476349 1.38581929876693 0.0
    vertex 0.2926354830241927 1.4711779206048456 0.0
  endloop
endfacet
facet normal -0.09801714032956067 -0.9951847266721969 -0.0
  outer loop
    vertex 0.2926354830241927 1.4711779206048456 0.0
    vertex 0.0 1.5 -50.0
    vertex 0.2926354830241927 1.4711779206048456 -50.0
  endloop
endfacet
facet normal -0.09801714032956067 -0.9951847266721969 -0.0
  outer loop
    vertex 0.0 1.5 -50.0
    vertex 0.2926354830241927 1.4711779206048456 0.0
    vertex 0.0 1.5 0.0
  endloop
endfacet
facet normal 0.09801714032956067 -0.9951847266721969 0.0
  outer loop
    vertex 0.0 1.5 0.0
    vertex -0.29263548302419196 1.4711779206048456 -50.0
    vertex 0.0 1.5 -50.0
  endloop
endfacet
facet normal 0.09801714032956067 -0.9951847266721969 0.0
  outer loop
    vertex -0.29263548302419196 1.4711779206048456 -50.0
    vertex 0.0 1.5 0.0
    vertex -0.29263548302419196 1.4711779206048456 0.0
  endloop
endfacet
facet normal 0.2902846772544626 -0.9569403357322087 0.0
  outer loop
    vertex -0.29263548302419196 1.4711779206048456 0.0
    vertex -0.5740251485476342 1.38581929876693 -50.0
    vertex -0.29263548302419196 1.4711779206048456 -50.0
  endloop
endfacet
facet normal 0.2902846772544626 -0.9569403357322087 0.0
  outer loop
    vertex -0.5740251485476342 1.38581929876693 -50.0
    vertex -0.29263548302419196 1.4711779206048456 0.0
    vertex -0.5740251485476342 1.38581929876693 0.0
  endloop
endfacet
facet normal 0.47139673682599686 -0.8819212643483554 0.0
  outer loop
    vertex -0.5740251485476342 1.38581929876693 0.0
    vertex -0.8333553495294027 1.247204418453818 -50.0
    vertex -0.5740251485476342 1.38581929876693 -50.0
  endloop
endfacet
facet normal 0.47139673682599686 -0.8819212643483554 0.0
  outer loop
    vertex -0.8333553495294027 1.247204418453818 -50.0
    vertex -0.5740251485476342 1.38581929876693 0.0
    vertex -0.8333553495294027 1.247204418453818 0.0
  endloop
endfacet
facet normal 0.6343932841636455 -0.7730104533627369 0.0
  outer loop
    vertex -0.8333553495294027 1.247204418453818 0.0
    vertex -1.0606601717798212 1.0606601717798212 -50.0
    vertex -0.8333553495294027 1.247204418453818 -50.0
  endloop
endfacet
facet normal 0.6343932841636455 -0.7730104533627369 0.0
  outer loop
    vertex -1.0606601717798212 1.0606601717798212 -50.0
    vertex -0.8333553495294027 1.247204418453818 0.0
    vertex -1.0606601717798212 1.0606601717798212 0.0
  endloop
endfacet
facet normal 0.7730104533627367 -0.6343932841636458 0.0
  outer loop
    vertex -1.0606601717798212 1.0606601717798212 -50.0
    vertex -1.247204418453818 0.8333553495294034 0.0
    vertex -1.247204418453818 0.8333553495294034 -50.0
  endloop
endfacet
facet normal 0.7730104533627367 -0.6343932841636458 0.0
  outer loop
    vertex -1.247204418453818 0.8333553495294034 0.0
    vertex -1.0606601717798212 1.0606601717798212 -50.0
    vertex -1.0606601717798212 1.0606601717798212 0.0
  endloop
endfacet
facet normal 0.8819212643483554 -0.471396736825997 0.0
  outer loop
    vertex -1.247204418453818 0.8333553495294034 -50.0
    vertex -1.38581929876693 0.5740251485476349 0.0
    vertex -1.38581929876693 0.5740251485476349 -50.0
  endloop
endfacet
facet normal 0.8819212643483554 -0.471396736825997 0.0
  outer loop
    vertex -1.38581929876693 0.5740251485476349 0.0
    vertex -1.247204418453818 0.8333553495294034 -50.0
    vertex -1.247204418453818 0.8333553495294034 0.0
  endloop
endfacet
facet normal 0.9569403357322088 -0.290284677254463 0.0
  outer loop
    vertex -1.38581929876693 0.5740251485476349 -50.0
    vertex -1.4711779206048456 0.2926354830241927 0.0
    vertex -1.4711779206048456 0.2926354830241927 -50.0
  endloop
endfacet
facet normal 0.9569403357322088 -0.290284677254463 0.0
  outer loop
    vertex -1.4711779206048456 0.2926354830241927 0.0
    vertex -1.38581929876693 0.5740251485476349 -50.0
    vertex -1.38581929876693 0.5740251485476349 0.0
  endloop
endfacet
facet normal 0.995184726672197 -0.09801714032956058 0.0
  outer loop
    vertex -1.4711779206048456 0.2926354830241927 -50.0
    vertex -1.5 0.0 0.0
    vertex -1.5 0.0 -50.0
  endloop
endfacet
facet normal 0.995184726672197 -0.09801714032956058 0.0
  outer loop
    vertex -1.5 0.0 0.0
    vertex -1.4711779206048456 0.2926354830241927 -50.0
    vertex -1.4711779206048456 0.2926354830241927 0.0
  endloop
endfacet
facet normal 0.9951847266721969 0.09801714032956055 0.0
  outer loop
    vertex -1.5 0.0 -50.0
    vertex -1.4711779206048456 -0.2926354830241927 0.0
    vertex -1.4711779206048456 -0.2926354830241927 -50.0
  endloop
endfacet
facet normal 0.9951847266721969 0.09801714032956055 0.0
  outer loop
    vertex -1.4711779206048456 -0.2926354830241927 0.0
    vertex -1.5 0.0 -50.0
    vertex -1.5 0.0 0.0
  endloop
endfacet
facet normal 0.9569403357322088 0.29028467725446294 0.0
  outer loop
    vertex -1.4711779206048456 -0.2926354830241927 -50.0
    vertex -1.38581929876693 -0.5740251485476349 0.0
    vertex -1.38581929876693 -0.5740251485476349 -50.0
  endloop
endfacet
facet normal 0.9569403357322088 0.29028467725446294 0.0
  outer loop
    vertex -1.38581929876693 -0.5740251485476349 0.0
    vertex -1.4711779206048456 -0.2926354830241927 -50.0
    vertex -1.4711779206048456 -0.2926354830241927 0.0
  endloop
endfacet
facet normal 0.8819212643483557 0.4713967368259967 0.0
  outer loop
    vertex -1.38581929876693 -0.5740251485476349 -50.0
    vertex -1.247204418453818 -0.833355349529403 0.0
    vertex -1.247204418453818 -0.833355349529403 -50.0
  endloop
endfacet
facet normal 0.8819212643483557 0.4713967368259967 0.0
  outer loop
    vertex -1.247204418453818 -0.833355349529403 0.0
    vertex -1.38581929876693 -0.5740251485476349 -50.0
    vertex -1.38581929876693 -0.5740251485476349 0.0
  endloop
endfacet
facet normal 0.7730104533627373 0.6343932841636453 0.0
  outer loop
    vertex -1.247204418453818 -0.833355349529403 -50.0
    vertex -1.0606601717798214 -1.0606601717798212 0.0
    vertex -1.0606601717798214 -1.0606601717798212 -50.0
  endloop
endfacet
facet normal 0.7730104533627373 0.6343932841636453 0.0
  outer loop
    vertex -1.0606601717798214 -1.0606601717798212 0.0
    vertex -1.247204418453818 -0.833355349529403 -50.0
    vertex -1.247204418453818 -0.833355349529403 0.0
  endloop
endfacet
facet normal 0.6343932841636453 0.7730104533627373 0.0
  outer loop
    vertex -1.0606601717798214 -1.0606601717798212 0.0
    vertex -0.8333553495294034 -1.247204418453818 -50.0
    vertex -1.0606601717798214 -1.0606601717798212 -50.0
  endloop
endfacet
facet normal 0.6343932841636453 0.7730104533627373 0.0
  outer loop
    vertex -0.8333553495294034 -1.247204418453818 -50.0
    vertex -1.0606601717798214 -1.0606601717798212 0.0
    vertex -0.8333553495294034 -1.247204418453818 0.0
  endloop
endfacet
facet normal 0.4713967368259981 0.8819212643483547 0.0
  outer loop
    vertex -0.8333553495294034 -1.247204418453818 0.0
    vertex -0.5740251485476356 -1.38581929876693 -50.0
    vertex -0.8333553495294034 -1.247204418453818 -50.0
  endloop
endfacet
facet normal 0.4713967368259981 0.8819212643483547 0.0
  outer loop
    vertex -0.5740251485476356 -1.38581929876693 -50.0
    vertex -0.8333553495294034 -1.247204418453818 0.0
    vertex -0.5740251485476356 -1.38581929876693 0.0
  endloop
endfacet
facet normal 0.2902846772544625 0.9569403357322088 0.0
  outer loop
    vertex -0.5740251485476356 -1.38581929876693 0.0
    vertex -0.2926354830241927 -1.4711779206048456 -50.0
    vertex -0.5740251485476356 -1.38581929876693 -50.0
  endloop
endfacet
facet normal 0.2902846772544625 0.9569403357322088 0.0
  outer loop
    vertex -0.2926354830241927 -1.4711779206048456 -50.0
    vertex -0.5740251485476356 -1.38581929876693 0.0
    vertex -0.2926354830241927 -1.4711779206048456 0.0
  endloop
endfacet
facet normal 0.09801714032956114 0.9951847266721968 0.0
  outer loop
    vertex -0.2926354830241927 -1.4711779206048456 0.0
    vertex 0.0 -1.5 -50.0
    vertex -0.2926354830241927 -1.4711779206048456 -50.0
  endloop
endfacet
facet normal 0.09801714032956114 0.9951847266721968 0.0
  outer loop
    vertex 0.0 -1.5 -50.0
    vertex -0.2926354830241927 -1.4711779206048456 0.0
    vertex 0.0 -1.5 0.0
  endloop
endfacet
facet normal -0.09801714032956058 0.9951847266721969 0.0
  outer loop
    vertex 0.0 -1.5 0.0
    vertex 0.2926354830241927 -1.4711779206048456 -50.0
    vertex 0.0 -1.5 -50.0
  endloop
endfacet
facet normal -0.09801714032956058 0.9951847266721969 0.0
  outer loop
    vertex 0.2926354830241927 -1.4711779206048456 -50.0
    vertex 0.0 -1.5 0.0
    vertex 0.2926354830241927 -1.4711779206048456 0.0
  endloop
endfacet
facet normal -0.29028467725446244 0.9569403357322089 0.0
  outer loop
    vertex 0.2926354830241927 -1.4711779206048456 0.0
    vertex 0.5740251485476349 -1.38581929876693 -50.0
    vertex 0.2926354830241927 -1.4711779206048456 -50.0
  endloop
endfacet
facet normal -0.29028467725446244 0.9569403357322089 0.0
  outer loop
    vertex 0.5740251485476349 -1.38581929876693 -50.0
    vertex 0.2926354830241927 -1.4711779206048456 0.0
    vertex 0.5740251485476349 -1.38581929876693 0.0
  endloop
endfacet
facet normal -0.4713967368259972 0.8819212643483554 0.0
  outer loop
    vertex 0.5740251485476349 -1.38581929876693 0.0
    vertex 0.8333553495294027 -1.2472044184538185 -50.0
    vertex 0.5740251485476349 -1.38581929876693 -50.0
  endloop
endfacet
facet normal -0.4713967368259972 0.8819212643483554 0.0
  outer loop
    vertex 0.8333553495294027 -1.2472044184538185 -50.0
    vertex 0.5740251485476349 -1.38581929876693 0.0
    vertex 0.8333553495294027 -1.2472044184538185 0.0
  endloop
endfacet
facet normal -0.6343932841636453 0.7730104533627373 0.0
  outer loop
    vertex 0.8333553495294027 -1.2472044184538185 0.0
    vertex 1.0606601717798212 -1.0606601717798219 -50.0
    vertex 0.8333553495294027 -1.2472044184538185 -50.0
  endloop
endfacet
facet normal -0.6343932841636453 0.7730104533627373 0.0
  outer loop
    vertex 1.0606601717798212 -1.0606601717798219 -50.0
    vertex 0.8333553495294027 -1.2472044184538185 0.0
    vertex 1.0606601717798212 -1.0606601717798219 0.0
  endloop
endfacet
facet normal -0.7730104533627373 0.6343932841636453 0.0
  outer loop
    vertex 1.2472044184538174 -0.8333553495294034 0.0
    vertex 1.0606601717798212 -1.0606601717798219 -50.0
    vertex 1.0606601717798212 -1.0606601717798219 0.0
  endloop
endfacet
facet normal -0.7730104533627373 0.6343932841636453 0.0
  outer loop
    vertex 1.0606601717798212 -1.0606601717798219 -50.0
    vertex 1.2472044184538174 -0.8333553495294034 0.0
    vertex 1.2472044184538174 -0.8333553495294034 -50.0
  endloop
endfacet
facet normal -0.8819212643483547 0.4713967368259981 0.0
  outer loop
    vertex 1.38581929876693 -0.5740251485476356 0.0
    vertex 1.2472044184538174 -0.8333553495294034 -50.0
    vertex 1.2472044184538174 -0.8333553495294034 0.0
  endloop
endfacet
facet normal -0.8819212643483547 0.4713967368259981 0.0
  outer loop
    vertex 1.2472044184538174 -0.8333553495294034 -50.0
    vertex 1.38581929876693 -0.5740251485476356 0.0
    vertex 1.38581929876693 -0.5740251485476356 -50.0
  endloop
endfacet
endsolid Untitled-593c5265
